<?xml version="1.0" encoding="utf-8"?>
<!-- Generator: Adobe Illustrator 27.0.0, SVG Export Plug-In . SVG Version: 6.00 Build 0)  -->
<svg version="1.1" id="Layer_1" xmlns="http://www.w3.org/2000/svg" xmlns:xlink="http://www.w3.org/1999/xlink" x="0px" y="0px"
	 viewBox="0 0 88.34 62.77" style="enable-background:new 0 0 88.34 62.77;" xml:space="preserve">
<style type="text/css">
	.st0{fill:#032146;}
</style>
<g id="Group_20401_00000152250704493198725020000007608344387742510503_" transform="translate(0 0)">
	<path id="Path_13345_00000008141041187895552600000010098623546976590509_" class="st0" d="M37.5,54.19
		c0.03-0.15,0.28-0.84,0.32-0.98c0.96-3.45,4.86-6.14,10.96-10.15c8.31-5.46,11.85-10.28,11.85-16.85
		c0.01-8.36-6.44-14.89-16.36-14.89c-5.54,0.05-10.65,2.99-13.46,7.76l4.27,7.91c0.86-4.75,4.46-8.1,9.02-8.12
		c4.28-0.02,7.71,2.85,7.71,7.4c-0.18,4.01-2.29,7.39-9.67,11.94C30.91,45.14,27.5,52.01,28.1,61.85h34.08l-4.17-7.72H39.79
		L37.5,54.19z"/>
	<path id="Path_13346_00000162343045929933405990000004204689634113352600_" class="st0" d="M37.69,36.66l-3.8-7.05H20.85
		l9.79-20.69l-4.33-8.01h-1.27L1.39,50.88h9.39l6.72-14.21L37.69,36.66z"/>
	<path id="Path_13347_00000136404436326045351190000004492477202863277970_" class="st0" d="M73.09,17.62l8.9-9.97V0.92H53.69
		l3.95,7.31h12.45l2.1-0.1l-1.38,1.24l-8.06,9.13l2.86,5.29c0.73-0.21,1.49-0.31,2.25-0.3c6.11,0.08,10.59,4.64,10.59,10.18
		c-0.12,5.92-5,10.63-10.92,10.53c-3.29-0.04-6.42-1.47-8.6-3.93l-5.7,5.48c3.83,3.77,8.98,5.88,14.36,5.89
		c11.36,0.21,19.37-7.98,19.37-17.94C86.95,26.8,82.8,19.61,73.09,17.62"/>
</g>
</svg>
